<svg xmlns="http://www.w3.org/2000/svg" viewBox="0 0 19.5 19.5" xml:space="preserve"><path d="M14.3 19.5h-9c-2.9 0-5.2-2.4-5.2-5.2v-9C0 2.4 2.4 0 5.2 0h9c2.9 0 5.2 2.4 5.2 5.2v9c.1 2.9-2.3 5.3-5.1 5.3zm-9.1-18c-2.1 0-3.8 1.7-3.8 3.8v9c0 2.1 1.7 3.7 3.7 3.7h9c2.1 0 3.7-1.7 3.7-3.7v-9c0-2.1-1.7-3.7-3.7-3.7H5.2z"></path><path class="st0" d="M14.2 11.4H8.8c-.4 0-.8-.3-.8-.8 0-.4.3-.8.8-.8h5.4c.4 0 .8.3.8.8s-.3.8-.8.8z"></path><path class="st0" d="M10.7 19.5c-.4 0-.8-.3-.8-.8V8.8c0-1.9 1.5-3.4 3.4-3.4h.9c.4 0 .8.3.8.8s-.3.8-.8.8h-.9c-1.1 0-1.9.9-1.9 1.9v9.9c0 .4-.3.7-.7.7z"></path></svg>