<svg xmlns="http://www.w3.org/2000/svg" viewBox="0 0 19.5 19.5" xml:space="preserve"><path d="M14.3 19.5h-1.5c-.4 0-.8-.3-.8-.8v-1s0-1.4-.8-2.6c-.1-.2-.2-.5 0-.7.1-.2.4-.4.6-.4 1.7-.1 2.9-1.6 2.9-3.4 0-.6-.2-1.1-.6-1.7-.1-.2-.1-.3-.1-.5l-.1-1.9-2 .8c-.1.1-.3.1-.4 0-1.2-.3-2.3-.3-3.4 0h-.4l-2.1-.8v1.9c0 .2-.1.3-.2.5-.4.5-.6 1.1-.6 1.7 0 1.8 1.3 3.3 2.9 3.4.3 0 .5.2.6.4.1.2.1.5 0 .7-.8 1.2-.8 2.6-.8 2.6v1c0 .4-.3.8-.8.8H5.2c-2.9 0-5.2-2.4-5.2-5.2v-9C0 2.4 2.4 0 5.2 0h9c2.9 0 5.2 2.4 5.2 5.2v9c.1 2.9-2.3 5.3-5.1 5.3zm-.8-1.5h.8c2.1 0 3.7-1.7 3.7-3.7v-9c0-2.1-1.7-3.7-3.7-3.7h-9c-2.1 0-3.8 1.7-3.8 3.8v9c0 2.1 1.7 3.7 3.7 3.7H6v-.3c0-.1 0-1.2.5-2.5-1.9-.6-3.3-2.5-3.3-4.7 0-.8.3-1.7.8-2.4V6.5c0-.5.3-.9.6-1.2.5-.3 1-.4 1.5-.2l1.9.7c1.2-.3 2.5-.3 3.6 0l1.9-.7c.4-.2.9-.1 1.3.2.4.3.6.7.6 1.2v1.7c.5.7.8 1.6.8 2.4 0 2.2-1.4 4.1-3.3 4.7.5 1.2.5 2.4.5 2.5v.2z"></path></svg>