<svg xmlns="http://www.w3.org/2000/svg" viewBox="0 0 19.5 19.5" xml:space="preserve"><path d="M14.3 19.5h-9c-2.9 0-5.2-2.4-5.2-5.2v-9C0 2.4 2.4 0 5.2 0h9c2.9 0 5.2 2.4 5.2 5.2v9c.1 2.9-2.3 5.3-5.1 5.3zm-9.1-18c-2.1 0-3.8 1.7-3.8 3.8v9c0 2.1 1.7 3.7 3.7 3.7h9c2.1 0 3.7-1.7 3.7-3.7v-9c0-2.1-1.7-3.7-3.7-3.7H5.2z"></path><path class="st0" d="M5.9 15c-.4 0-.8-.3-.8-.8V8.9c0-.4.3-.8.8-.8s.8.3.8.8v5.4c-.1.4-.4.7-.8.7zM14 15c-.4 0-.8-.3-.8-.8v-3.1c0-.8-.7-1.5-1.5-1.5s-1.5.7-1.5 1.5v3.1c0 .4-.3.8-.8.8s-.8-.3-.8-.8v-3.1c0-1.7 1.3-3 3-3s3 1.3 3 3v3.1c.1.5-.2.8-.6.8zM5.9 6.8c-.5 0-1-.4-1-1 0-.3.1-.5.3-.7.2-.2.4-.3.7-.3.5 0 1 .4 1 1s-.5 1-1 1zm0-1.5c-.3 0-.5.2-.5.5 0 .4.6.7.9.4.1-.1.2-.2.2-.4-.1-.3-.3-.5-.6-.5z"></path></svg>